<?xml version="1.0" encoding="UTF-8"?>
<svg id="uuid-70621bdb-3652-45ee-805f-1c52d6073de3" data-name="Capa 1" xmlns="http://www.w3.org/2000/svg" width="150" height="36.3033" viewBox="0 0 150 36.3033">
  <path d="m47.9279.0007c8.164-.0971,8.4903,10.0162,0,10.1621h-14.934c-8.2145,0-14.9362,6.7213-14.9362,14.9362v-10.1621C18.0576,6.722,24.7793.0007,32.9938.0007h14.934Z" fill="#fdc300" fill-rule="evenodd"/>
  <path d="m6.2451,36.3026c-8.1635.0972-8.4886-10.0163,0-10.163h14.9362c8.2135,0,14.9348-6.7213,14.9348-14.9357v10.1628c0,8.2145-6.7212,14.9359-14.9348,14.9359H6.2451Z" fill="#4a565b" fill-rule="evenodd"/>
  <path d="m49.688,27.9116c.7132.3963,1.9282.6867,2.9318.6867,1.6378,0,2.4302-.8455,2.4302-2.0076,0-1.2942-.7923-1.928-2.2981-2.9056-2.4301-1.4793-3.3546-3.3543-3.3546-4.9657,0-2.8529,1.9018-5.2306,5.6261-5.2306,1.1624,0,2.2718.3171,2.8.6342l-.5546,2.9848c-.5019-.3171-1.268-.6076-2.2716-.6076-1.4793,0-2.1924.898-2.1924,1.8491,0,1.0567.5282,1.6113,2.4564,2.7735,2.351,1.4263,3.2227,3.2227,3.2227,5.0982,0,3.2489-2.4037,5.3882-5.8903,5.3882-1.4266,0-2.8264-.3696-3.4075-.7129l.5019-2.9847Z" fill="#4a565b"/>
  <path d="m65.8695,31.4509l-.1848-1.268h-.0529c-.7132,1.0038-1.717,1.4792-2.8527,1.4792-1.9547,0-3.4075-1.6376-3.4075-3.9356,0-3.381,2.9847-4.7811,5.9168-4.8074v-.2904c0-1.0038-.6075-1.7434-1.8226-1.7434-1.0303,0-1.8755.2642-2.6414.7396l-.634-2.3247c.7132-.4225,2.2189-.9771,4.015-.9771,3.9356,0,4.5696,2.7468,4.5696,5.362v4.8073c0,1.0301.0529,2.0868.2113,2.9585h-3.1168Zm-.4754-6.2866c-1.1622.0263-2.747.3963-2.747,2.1922,0,1.2947.7132,1.7701,1.2413,1.7701.5548,0,1.1888-.3434,1.4265-1.1097.0527-.185.0792-.3963.0792-.6075v-2.2451Z" fill="#4a565b"/>
  <path d="m70.8726,22.4171c0-1.2942-.0527-2.6939-.1056-3.8827h3.0112l.185,1.8755h.0792c.5811-1.3738,1.6113-2.0868,2.5622-2.0868.3434,0,.5282,0,.7396.0529v3.4335c-.2115-.0525-.4492-.0525-.7396-.0525-.7396,0-1.717.5017-2.1132,1.8488-.0792.2904-.1321.7396-.1321,1.2942v6.5508h-3.4866v-9.0339Z" fill="#4a565b"/>
  <path d="m81.9083,15.1002c.0265,1.1097-.7659,1.8755-1.8226,1.8755-.9509,0-1.7432-.7659-1.7167-1.8755-.0265-1.1622.8188-1.8756,1.7697-1.8756,1.0038,0,1.7697.7134,1.7697,1.8756Zm-3.4602,16.3507v-12.9166h3.4602v12.9166h-3.4602Z" fill="#4a565b"/>
  <path d="m91.1192,31.2397c-.3438.1583-1.2153.3696-2.1927.3696-3.2754,0-5.4149-2.2714-5.4149-6.4979,0-3.9885,2.3508-6.7621,5.9168-6.7621.8188,0,1.5586.185,1.902.3434l-.4492,2.721c-.2904-.1058-.7132-.2379-1.2945-.2379-1.664,0-2.6414,1.5846-2.6414,3.8302,0,2.3505.9773,3.7773,2.5887,3.7773.5019,0,.9244-.0796,1.2942-.2642l.2909,2.7206Z" fill="#4a565b"/>
  <path d="m101.5527,24.9531c0,5.3886-2.9848,6.7091-4.9395,6.7091-3.0906,0-4.9394-2.4301-4.9394-6.63,0-4.649,2.4301-6.7091,4.9924-6.7091,3.0377,0,4.8865,2.5622,4.8865,6.63Zm-6.445,0c0,2.2189.3434,4.0677,1.5847,4.0677,1.1097,0,1.4001-2.166,1.4001-4.0677,0-1.7697-.2904-4.0148-1.4526-4.0148-1.268,0-1.5322,2.2451-1.5322,4.0148Z" fill="#4a565b"/>
  <path d="m104.7015,13.9118c.8717-.2117,2.1397-.3434,3.5131-.3434,2.2456,0,3.804.5279,4.9394,1.5847,1.5322,1.3734,2.3248,3.7246,2.3248,7.1848,0,3.5923-.9247,6.1545-2.4831,7.5284-1.1888,1.1621-2.9585,1.7167-5.4411,1.7167-1.083,0-2.166-.1058-2.8531-.185V13.9118Zm3.4606,14.7919c.1583.0529.4225.0529.6075.0529,1.6638,0,3.1168-1.6376,3.1168-6.5508,0-3.6452-.9509-5.8639-3.0377-5.8639-.238,0-.4755,0-.6867.0792v12.2826Z" fill="#4a565b"/>
  <path d="m120.5317,15.1002c.0267,1.1097-.7659,1.8755-1.8226,1.8755-.9509,0-1.743-.7659-1.7167-1.8755-.0263-1.1622.8188-1.8756,1.7697-1.8756,1.0038,0,1.7697.7134,1.7697,1.8756Zm-3.4602,16.3507v-12.9166h3.4602v12.9166h-3.4602Z" fill="#4a565b"/>
  <path d="m122.5945,28.3341c.5021.3171,1.453.6867,2.3247.6867.898,0,1.3996-.3963,1.3996-1.1621,0-.6605-.3696-1.083-1.5055-1.7434-2.113-1.1884-2.6147-2.5356-2.6147-3.7244,0-2.3243,1.6638-4.0677,4.2523-4.0677,1.083,0,1.9284.2642,2.6152.5808l-.6075,2.536c-.5017-.2904-1.1092-.5284-1.7959-.5284-.8717,0-1.2947.5284-1.2947,1.1097,0,.5809.2909.898,1.5059,1.6109,1.9018,1.083,2.6147,2.4301,2.6147,3.9094,0,2.6414-1.9018,4.0677-4.5694,4.0677-1.083,0-2.351-.2904-2.9585-.7396l.6338-2.5356Z" fill="#4a565b"/>
  <path d="m135.1414,15.0473v3.4871h2.536v2.4564h-2.536v5.8903c0,1.5059.6338,1.8756,1.3209,1.8756.3434,0,.6075-.0263.898-.0792l.0262,2.6943c-.4754.1321-1.1884.2375-2.113.2375-1.0038,0-1.8755-.2375-2.4831-.8188-.7129-.6867-1.1092-1.6638-1.1092-3.6977v-6.102h-1.5322v-2.4564h1.5322v-2.6679l3.4602-.8192Z" fill="#4a565b"/>
  <path d="m138.9637,22.4171c0-1.2942-.0529-2.6939-.1058-3.8827h3.0114l.1846,1.8755h.0791c.5813-1.3738,1.6113-2.0868,2.5622-2.0868.3434,0,.5284,0,.7396.0529v3.4335c-.2113-.0525-.4488-.0525-.7396-.0525-.7396,0-1.7167.5017-2.113,1.8488-.0792.2904-.1321.7396-.1321,1.2942v6.5508h-3.4864v-9.0339Z" fill="#4a565b"/>
  <path d="m149.9993,15.1002c.0267,1.1097-.7659,1.8755-1.8226,1.8755-.9509,0-1.7434-.7659-1.7167-1.8755-.0267-1.1622.8188-1.8756,1.7697-1.8756,1.0038,0,1.7697.7134,1.7697,1.8756Zm-3.4602,16.3507v-12.9166h3.4602v12.9166h-3.4602Z" fill="#4a565b"/>
</svg>